<svg width="216" height="41" viewBox="0 0 216 41" fill="none" xmlns="http://www.w3.org/2000/svg">
<rect y="3.13721" width="34.2587" height="34.2587" rx="8.56466" fill="#5278FF"/>
<g clip-path="url(#clip0_72_195)">
<path d="M19.4813 6.39173C19.3263 6.44189 19.1941 6.5308 19.0618 6.67214C18.9638 6.7793 18.8749 6.93204 18.6104 7.44272C18.4326 7.7938 18.2799 8.08562 18.2753 8.09018C18.2707 8.09702 18.2183 8.0765 18.1568 8.04686C18.0154 7.97391 17.7988 7.96023 17.6643 8.01038C17.5161 8.06738 17.4386 8.15857 17.2631 8.49598C17.0853 8.83339 17.0533 8.95878 17.1035 9.13888C17.1354 9.25971 17.295 9.43754 17.4227 9.49453C17.4728 9.51733 17.5139 9.54697 17.5139 9.55836C17.5139 9.57204 17.2882 10.0212 17.0123 10.5569C16.7364 11.0949 16.5107 11.5441 16.5107 11.5555C16.5107 11.5669 16.9963 11.8245 17.5891 12.1277C18.1796 12.4332 18.9022 12.8025 19.1918 12.9507L19.7184 13.222L20.2177 12.2508C20.4913 11.7151 20.7284 11.2614 20.742 11.2431C20.7648 11.2135 22.2923 11.9841 26.5532 14.1795C27.0138 14.4166 30.5474 16.229 32.4123 17.1843C33.094 17.5331 33.5659 17.7633 33.6252 17.7725C33.7505 17.7907 33.9284 17.7474 34.0378 17.6699C34.1039 17.6197 34.1655 17.5262 34.3045 17.2664C34.4824 16.9358 34.4869 16.9221 34.4869 16.7671C34.4869 16.6348 34.4755 16.5893 34.4231 16.5003C34.3889 16.4411 34.3273 16.3681 34.2863 16.3362C34.2475 16.3066 33.6639 15.9988 32.9937 15.6545C29.8019 14.0176 24.5812 11.3389 23.2589 10.6618C22.4496 10.2491 21.7246 9.87526 21.6448 9.83194L21.5012 9.75443L21.8341 9.10697C22.2011 8.38883 22.2467 8.25888 22.2239 7.99215C22.2079 7.79152 22.1076 7.57722 21.9868 7.48147C21.9412 7.445 21.4465 7.18282 20.8902 6.89557C19.9122 6.39401 19.8712 6.37577 19.7275 6.36893C19.6386 6.36437 19.536 6.37349 19.4813 6.39173Z" fill="white"/>
<path d="M15.1658 22.0332V22.3638H14.5844H14.0031V22.4549V22.5461L9.66006 22.5507L5.31705 22.5575L5.41736 22.8038C5.97591 24.1716 7.1956 25.1223 9.19726 25.7515C9.91995 25.9795 10.4192 26.0981 12.2248 26.4788C12.8586 26.611 13.5653 26.766 13.7979 26.823C14.9218 27.0989 15.7448 27.4796 16.2031 27.9379C16.6453 28.3824 16.9372 29.0846 17.0808 30.0467C17.1355 30.4183 17.1378 30.5642 17.0899 30.7944C16.96 31.4282 16.447 31.9617 15.5602 32.388C15.3869 32.4724 15.0928 32.5932 14.9036 32.6593L14.5616 32.7779L14.5548 33.4755L14.5502 34.1731H16.5086H18.4669L18.4806 34.1207C18.4874 34.0933 18.4943 34.0386 18.4943 33.9998C18.4943 33.9611 18.5193 33.8266 18.5513 33.7035C18.7678 32.8508 19.4335 32.2034 20.3181 31.9913C20.5164 31.9457 22.0781 31.9207 22.4155 31.9594C22.9513 32.0232 23.4255 32.2467 23.7971 32.6137C24.1778 32.9899 24.4354 33.5188 24.4833 34.0181L24.497 34.1731H26.225H27.9554V33.5028V32.8326L27.7799 32.7345C26.8497 32.2262 26.1088 31.6083 25.6939 30.9928C25.361 30.4958 25.1923 30.0239 25.1262 29.3878C25.092 29.0527 25.1125 28.2639 25.1627 27.9835C25.3678 26.8458 26.1475 25.9658 27.5473 25.2956C27.9805 25.0881 28.2107 24.9969 28.7693 24.8123C29.4601 24.582 30.3629 24.3631 31.2907 24.2013L31.7057 24.1283L31.7125 22.9155L31.7171 21.7026H23.4414H15.1658V22.0332ZM7.93881 23.8C9.65778 24.6618 11.4201 25.1109 13.4787 25.2112C13.7227 25.2249 13.962 25.2454 14.0099 25.2591C14.1353 25.2956 14.288 25.4529 14.3222 25.576C14.3815 25.7971 14.2972 25.9818 14.0943 26.0867C13.9711 26.1505 13.962 26.1528 13.7113 26.1368C13.3761 26.1186 12.7811 26.0479 12.3525 25.975C10.5241 25.6672 9.02855 25.0357 7.81114 24.0599C7.56492 23.8616 6.9813 23.3258 6.9813 23.2985C6.9813 23.2871 7.09757 23.3463 7.23891 23.4284C7.37798 23.5105 7.69487 23.6792 7.93881 23.8Z" fill="white"/>
</g>
<path d="M58.2437 10.8881C61.0009 10.8881 63.0097 11.4494 64.2702 12.572C65.5306 13.6749 66.1609 15.2209 66.1609 17.2101C66.1609 18.0963 66.0132 18.9432 65.7177 19.7507C65.442 20.5581 64.9792 21.2868 64.3293 21.9368C63.6794 22.567 62.8128 23.0692 61.7296 23.4434C60.6661 23.7979 59.3564 23.9751 57.8005 23.9751H55.5258V31.981H52.3353V10.8881H58.2437ZM58.0073 13.5764H55.5258V21.2868H57.446C58.6474 21.2868 59.6518 21.1588 60.4593 20.9028C61.2668 20.6271 61.8675 20.2036 62.2613 19.6325C62.6749 19.0417 62.8817 18.2736 62.8817 17.3282C62.8817 16.0678 62.4878 15.1323 61.7001 14.5218C60.932 13.8915 59.7011 13.5764 58.0073 13.5764ZM76.2436 15.7625C78.2525 15.7625 79.7492 16.2056 80.734 17.0919C81.7187 17.9585 82.2111 19.3272 82.2111 21.1982V31.981H79.9954L79.375 29.7653H79.2569C78.8039 30.3365 78.3312 30.8091 77.8389 31.1833C77.3662 31.5575 76.8148 31.8332 76.1845 32.0105C75.574 32.1877 74.8256 32.2764 73.9394 32.2764C72.994 32.2764 72.1373 32.109 71.3692 31.7742C70.6208 31.4197 70.03 30.8879 69.5967 30.1789C69.1634 29.4502 68.9468 28.5443 68.9468 27.4611C68.9468 25.8461 69.5573 24.6152 70.7784 23.7683C72.0191 22.9215 73.9 22.4587 76.4209 22.3799L79.1387 22.2913V21.405C79.1387 20.2233 78.8728 19.3962 78.3411 18.9235C77.8093 18.4508 77.0609 18.2145 76.0959 18.2145C75.2687 18.2145 74.481 18.3327 73.7326 18.569C72.9842 18.8053 72.2752 19.0909 71.6056 19.4257L70.6011 17.151C71.3495 16.7571 72.2062 16.4321 73.1713 16.1761C74.156 15.9004 75.1801 15.7625 76.2436 15.7625ZM76.9822 24.3887C75.1703 24.4675 73.9098 24.7728 73.2008 25.3045C72.5115 25.8166 72.1668 26.5453 72.1668 27.4906C72.1668 28.3178 72.413 28.9185 72.9054 29.2927C73.4174 29.6669 74.0575 29.8539 74.8256 29.8539C76.0664 29.8539 77.0905 29.5093 77.898 28.82C78.7054 28.1307 79.1092 27.0967 79.1092 25.7181V24.3296L76.9822 24.3887ZM94.9796 15.7625C96.8899 15.7625 98.4261 16.4518 99.5881 17.8304C100.77 19.2091 101.361 21.2671 101.361 24.0047C101.361 25.7969 101.095 27.3134 100.563 28.5541C100.031 29.7949 99.2828 30.7304 98.3178 31.3606C97.3528 31.9711 96.2302 32.2764 94.95 32.2764C94.1425 32.2764 93.4335 32.1779 92.823 31.981C92.2125 31.7643 91.6906 31.4886 91.2573 31.1538C90.8437 30.7993 90.4794 30.4251 90.1643 30.0312H89.9575C90.0165 30.3857 90.0658 30.8091 90.1052 31.3015C90.1446 31.7742 90.1643 32.1976 90.1643 32.5718V39.071H87.0328V16.0579H89.5734L90.0165 18.1849H90.1643C90.4794 17.7517 90.8536 17.3479 91.2868 16.9737C91.7201 16.5995 92.242 16.3041 92.8526 16.0875C93.4631 15.8708 94.1721 15.7625 94.9796 15.7625ZM94.241 18.3327C93.2563 18.3327 92.4685 18.5296 91.8777 18.9235C91.2868 19.2977 90.8536 19.8688 90.5778 20.6369C90.3218 21.3853 90.1839 22.3405 90.1643 23.5025V23.9751C90.1643 25.1962 90.2923 26.24 90.5483 27.1066C90.8043 27.9534 91.2278 28.6033 91.8186 29.0563C92.4291 29.4896 93.2563 29.7062 94.3001 29.7062C95.1864 29.7062 95.9052 29.4699 96.4567 28.9972C97.0278 28.5049 97.4512 27.8254 97.7269 26.9589C98.0027 26.0923 98.1405 25.0879 98.1405 23.9456C98.1405 22.2125 97.8254 20.8437 97.1952 19.8393C96.565 18.8349 95.5802 18.3327 94.241 18.3327ZM111.615 15.7625C113.013 15.7625 114.215 16.0579 115.219 16.6488C116.224 17.2199 116.992 18.0471 117.523 19.1303C118.075 20.2135 118.351 21.4936 118.351 22.9707V24.6841H107.656C107.696 26.3188 108.119 27.5694 108.927 28.4359C109.754 29.3025 110.906 29.7358 112.383 29.7358C113.407 29.7358 114.313 29.6472 115.101 29.4699C115.908 29.273 116.736 28.9874 117.582 28.6132V31.2129C116.795 31.5674 115.987 31.8332 115.16 32.0105C114.353 32.1877 113.388 32.2764 112.265 32.2764C110.729 32.2764 109.37 31.9711 108.188 31.3606C107.007 30.75 106.081 29.8441 105.411 28.6427C104.761 27.4217 104.436 25.9249 104.436 24.1524C104.436 22.3602 104.732 20.8437 105.323 19.603C105.933 18.3622 106.77 17.4169 107.834 16.7669C108.917 16.0973 110.177 15.7625 111.615 15.7625ZM111.615 18.1849C110.492 18.1849 109.587 18.5493 108.897 19.278C108.228 20.0067 107.834 21.0407 107.716 22.3799H115.219C115.219 21.5527 115.091 20.824 114.835 20.1938C114.579 19.5636 114.185 19.0712 113.653 18.7167C113.122 18.3622 112.442 18.1849 111.615 18.1849ZM130.116 15.7625C130.392 15.7625 130.697 15.7822 131.032 15.8216C131.367 15.8413 131.642 15.8708 131.859 15.9102L131.534 18.8349C131.317 18.7758 131.061 18.7265 130.766 18.6872C130.471 18.6478 130.195 18.6281 129.939 18.6281C129.348 18.6281 128.777 18.7462 128.225 18.9826C127.694 19.1992 127.211 19.5242 126.778 19.9575C126.345 20.371 126 20.8831 125.744 21.4936C125.508 22.1042 125.389 22.8033 125.389 23.5911V31.981H122.258V16.0579H124.739L125.153 18.8939H125.271C125.606 18.3228 126.01 17.8009 126.482 17.3282C126.955 16.8556 127.497 16.4814 128.107 16.2056C128.718 15.9102 129.387 15.7625 130.116 15.7625ZM147.274 26.2794C147.274 27.5398 146.969 28.6132 146.358 29.4994C145.748 30.3857 144.871 31.075 143.729 31.5674C142.587 32.04 141.228 32.2764 139.652 32.2764C138.884 32.2764 138.146 32.2271 137.437 32.1287C136.728 32.0499 136.068 31.9317 135.457 31.7742C134.847 31.6166 134.305 31.4197 133.833 31.1833V28.1701C134.62 28.5246 135.546 28.8495 136.609 29.1449C137.673 29.4207 138.756 29.5585 139.859 29.5585C140.804 29.5585 141.592 29.4305 142.222 29.1745C142.853 28.9185 143.325 28.564 143.64 28.111C143.956 27.658 144.113 27.1263 144.113 26.5157C144.113 25.8658 143.946 25.3242 143.611 24.8909C143.296 24.438 142.794 24.0244 142.104 23.6502C141.435 23.2563 140.529 22.8427 139.386 22.4094C138.599 22.114 137.88 21.789 137.23 21.4345C136.6 21.0603 136.038 20.6271 135.546 20.1347C135.073 19.6423 134.709 19.0712 134.453 18.4213C134.197 17.7714 134.069 17.0131 134.069 16.1466C134.069 14.9846 134.354 13.99 134.926 13.1628C135.516 12.3357 136.324 11.7054 137.348 11.2722C138.372 10.8192 139.564 10.5927 140.923 10.5927C142.065 10.5927 143.119 10.7109 144.084 10.9472C145.068 11.1638 146.004 11.4691 146.89 11.863L145.886 14.4922C145.078 14.1574 144.261 13.8817 143.434 13.6651C142.606 13.4484 141.74 13.3401 140.834 13.3401C140.046 13.3401 139.386 13.4583 138.855 13.6946C138.323 13.9309 137.919 14.2559 137.643 14.6695C137.387 15.0831 137.259 15.5656 137.259 16.117C137.259 16.7669 137.407 17.3085 137.703 17.7418C137.998 18.1751 138.471 18.5788 139.121 18.953C139.77 19.3075 140.627 19.7014 141.691 20.1347C142.872 20.5877 143.877 21.08 144.704 21.6118C145.551 22.1435 146.191 22.7836 146.624 23.532C147.057 24.2607 147.274 25.1765 147.274 26.2794ZM168.893 15.7625C170.685 15.7625 172.034 16.2253 172.94 17.151C173.846 18.0766 174.299 19.5636 174.299 21.6118V31.981H171.168V22.0254C171.168 20.8043 170.921 19.8885 170.429 19.278C169.956 18.6478 169.208 18.3327 168.184 18.3327C166.766 18.3327 165.752 18.7758 165.141 19.662C164.531 20.5286 164.225 21.789 164.225 23.4434V31.981H161.123V22.0254C161.123 21.2179 161.005 20.5384 160.769 19.987C160.552 19.4355 160.227 19.022 159.794 18.7462C159.361 18.4705 158.799 18.3327 158.11 18.3327C157.125 18.3327 156.347 18.5493 155.776 18.9826C155.205 19.4159 154.792 20.0559 154.536 20.9028C154.299 21.73 154.181 22.7442 154.181 23.9456V31.981H151.05V16.0579H153.531L153.974 18.1849H154.152C154.486 17.6335 154.89 17.1805 155.363 16.826C155.855 16.4715 156.397 16.2056 156.988 16.0284C157.578 15.8511 158.189 15.7625 158.819 15.7625C160.02 15.7625 161.035 15.9792 161.862 16.4124C162.689 16.826 163.29 17.4661 163.664 18.3327H163.9C164.412 17.4464 165.121 16.7965 166.027 16.3829C166.933 15.9693 167.888 15.7625 168.893 15.7625ZM182.223 16.0579V31.981H179.091V16.0579H182.223ZM180.686 10.0019C181.159 10.0019 181.573 10.1397 181.927 10.4155C182.282 10.6912 182.459 11.154 182.459 11.8039C182.459 12.4341 182.282 12.897 181.927 13.1924C181.573 13.4681 181.159 13.606 180.686 13.606C180.174 13.606 179.741 13.4681 179.387 13.1924C179.052 12.897 178.884 12.4341 178.884 11.8039C178.884 11.154 179.052 10.6912 179.387 10.4155C179.741 10.1397 180.174 10.0019 180.686 10.0019ZM192.871 29.7358C193.285 29.7358 193.708 29.6964 194.142 29.6176C194.575 29.5388 194.949 29.4502 195.264 29.3517V31.7151C194.929 31.8726 194.476 32.0007 193.905 32.0991C193.334 32.2173 192.763 32.2764 192.192 32.2764C191.325 32.2764 190.528 32.1287 189.799 31.8332C189.09 31.5378 188.519 31.0258 188.086 30.2971C187.652 29.5684 187.436 28.5541 187.436 27.2543V18.4508H185.22V17.0328L187.554 15.8511L188.647 12.4834H190.567V16.0579H195.117V18.4508H190.567V27.1952C190.567 28.0617 190.774 28.7018 191.187 29.1154C191.621 29.529 192.182 29.7358 192.871 29.7358ZM201.581 15.5262C201.581 16.0185 201.561 16.5109 201.522 17.0033C201.482 17.4956 201.443 17.8994 201.403 18.2145H201.61C201.945 17.663 202.359 17.2101 202.851 16.8556C203.363 16.5011 203.924 16.2352 204.535 16.0579C205.165 15.8807 205.805 15.7921 206.455 15.7921C207.715 15.7921 208.769 15.9989 209.616 16.4124C210.483 16.8063 211.132 17.4366 211.566 18.3031C212.019 19.15 212.245 20.2529 212.245 21.6118V31.981H209.143V22.0549C209.143 20.8142 208.877 19.8885 208.346 19.278C207.834 18.6478 207.006 18.3327 205.864 18.3327C204.781 18.3327 203.924 18.5493 203.294 18.9826C202.684 19.4159 202.24 20.0559 201.965 20.9028C201.709 21.73 201.581 22.7541 201.581 23.9751V31.981H198.449V9.5292H201.581V15.5262Z" fill="#5278FF"/>
<defs>
<clipPath id="clip0_72_195">
<rect width="29.1814" height="27.8135" fill="white" transform="translate(5.31705 6.35962)"/>
</clipPath>
</defs>
</svg>
